<svg width="54" height="16" viewBox="0 0 54 16" fill="none" xmlns="http://www.w3.org/2000/svg">
<g id="mir" opacity="0.5">
<path id="path10 2" d="M48.0002 0H37.7002C38.3002 3.4 41.6002 6.60001 45.2002 6.60001H53.4002C53.5002 6.30001 53.5002 5.8 53.5002 5.5C53.5002 2.5 51.0002 0 48.0002 0Z" fill="url(#paint0_linear_13813_2623)"/>
<path id="path12 3" d="M38.6001 7.20001V15.5H43.6001V11.1H48.0001C50.4001 11.1 52.5001 9.40001 53.2001 7.20001H38.6001Z" fill="#4FAD50"/>
<path id="path14 2" d="M21 0V15.4H25.4C25.4 15.4 26.5 15.4 27.1 14.3C30.1 8.4 31 6.60001 31 6.60001H31.6V15.4H36.6V0H32.2C32.2 0 31.1 0.100006 30.5 1.10001C28 6.20001 26.6 8.8 26.6 8.8H26V0H21Z" fill="#4FAD50"/>
<path id="path16 2" d="M0 15.5V0.0999756H5C5 0.0999756 6.40001 0.0999725 7.20001 2.29997C9.20001 8.09997 9.40002 8.89998 9.40002 8.89998C9.40002 8.89998 9.80001 7.49997 11.6 2.29997C12.4 0.0999725 13.8 0.0999756 13.8 0.0999756H18.8V15.5H13.8V7.19998H13.2L10.4 15.5H8.20001L5.40002 7.19998H4.80002V15.5H0Z" fill="#4FAD50"/>
</g>
<defs>
<linearGradient id="paint0_linear_13813_2623" x1="37.6824" y1="3.3473" x2="53.4648" y2="3.3473" gradientUnits="userSpaceOnUse">
<stop stop-color="#27B1E6"/>
<stop offset="1" stop-color="#148ACA"/>
</linearGradient>
</defs>
</svg>
