<svg width="42" height="42" viewBox="0 0 42 42" fill="none" xmlns="http://www.w3.org/2000/svg">
<g id="webmoney" opacity="0.5">
<g id="Vector">
<path d="M26.6 19.9L22.1 15L17.1 19.4L21.6 24.4L26.6 19.9Z" fill="#137ABE"/>
<path d="M13.5 11L18 15.9L23 11.5L18.5 6.6L13.5 11Z" fill="#137ABE"/>
<path d="M30.1 28.4L25.6 23.5L20.6 28L25.1 32.9L30.1 28.4Z" fill="#137ABE"/>
<path d="M24.9 36.6L16.7 27.5L19 25.5L13.2 19.1L15.5 17.1L9.7 10.7L18.8 2.6L21.7 5.7L26.7 1.4L29.6 4.4L31.5 2.7C31.1 2.5 30.6 2.2 30.2 2C27.3 0.8 24.2 0 20.9 0C9.4 0 0 9.3 0 20.7C0 32.1 9.4 41.4 21 41.4C24.8 41.4 28.3 40.4 31.3 38.7C32.3 38.1 33.2 37.5 34.1 36.9L29.9 32.2L24.9 36.6Z" fill="#137ABE"/>
<path d="M22.7 8.6L26 12.3L29.8 9L26.4 5.3L22.7 8.6Z" fill="#137ABE"/>
<path d="M33.2 16.4L29.8 12.7L26.1 16.1L29.5 19.7L33.2 16.4Z" fill="#137ABE"/>
<path d="M36.4 24.2L33 20.5L29.3 23.8L32.7 27.6L36.4 24.2Z" fill="#137ABE"/>
<path d="M36.6 12L34.1 14.2L36.4 16.7L38.8 14.5L36.6 12Z" fill="#137ABE"/>
<path d="M37.3 21.5L39.5 24L42 21.8L39.7 19.3L37.3 21.5Z" fill="#137ABE"/>
<path d="M30.9 6.9L33.2 9.4L35.6 7.2L33.4 4.7L30.9 6.9Z" fill="#137ABE"/>
<path d="M32.6 31.3L36 35L39.7 31.7L36.3 28L32.6 31.3Z" fill="#137ABE"/>
</g>
</g>
</svg>
