<svg width="249" height="28" viewBox="0 0 249 28" fill="none" xmlns="http://www.w3.org/2000/svg">
<g id="social">
<g id="ok" opacity="0.5">
<circle id="Ellipse" cx="50.7739" cy="13.9106" r="13.9106" fill="#F79A38"/>
<g id="Vector">
<path d="M55.1125 15.8531C55.4774 15.4881 55.5296 14.9667 55.2167 14.4454C54.956 14.0283 54.4868 13.8197 53.9654 13.924C53.7569 13.9761 53.5483 14.0804 53.3398 14.2368C51.7235 15.3317 49.5337 15.2796 47.9175 14.1847C47.8132 14.1325 47.7089 14.0804 47.6046 14.0283C47.0311 13.7676 46.4576 13.8719 46.1448 14.3932C45.7798 14.9146 45.832 15.4881 46.3012 15.9574C46.4055 16.0616 46.5097 16.1138 46.5619 16.2181L46.614 16.2702C47.3439 16.8437 48.2303 17.2087 49.3773 17.3651L48.6995 18.0429C48.126 18.6164 47.5004 19.242 46.9268 19.8156C46.7704 19.972 46.5619 20.2327 46.5619 20.5976C46.5619 21.0669 46.8226 21.5361 47.2918 21.7446C47.4482 21.8489 47.6046 21.8489 47.761 21.8489C48.0217 21.8489 48.3346 21.7446 48.5431 21.484C49.3252 20.7019 49.9508 20.0762 50.5765 19.4506C50.6286 19.3985 50.6286 19.3985 50.6286 19.3985C50.6286 19.3985 50.6808 19.3985 50.6808 19.4506C51.0979 19.9198 51.5671 20.3369 51.9842 20.8062C52.1928 21.0147 52.4013 21.2233 52.6099 21.4318C52.8705 21.6925 53.0791 21.7968 53.3919 21.7968C53.8612 21.8489 54.3825 21.5361 54.5911 21.0669C54.7996 20.6498 54.6954 20.1284 54.3304 19.8156C53.809 19.2942 53.2876 18.7207 52.7141 18.1993L51.8278 17.3129C52.297 17.2608 52.8184 17.1565 53.2876 16.948C54.0697 16.6873 54.6432 16.3223 55.1125 15.8531Z" fill="white"/>
<path d="M50.6286 14.3932C52.8705 14.3932 54.6954 12.6205 54.6954 10.3786C54.6954 9.28373 54.2783 8.24098 53.4962 7.45892C52.7141 6.67685 51.7235 6.25975 50.6808 6.25975C48.4388 6.25975 46.6662 8.08457 46.614 10.2743C46.614 11.3692 47.0311 12.3599 47.8132 13.1419C48.5431 13.9761 49.5337 14.3932 50.6286 14.3932ZM49.4816 9.17946C49.7944 8.86664 50.2115 8.71022 50.6286 8.71022C51.5671 8.71022 52.2449 9.44015 52.2449 10.3265C52.2449 11.265 51.515 11.9428 50.6286 11.9428C49.6901 11.9428 49.0124 11.2128 49.0124 10.3265C49.0124 9.90939 49.1688 9.49229 49.4816 9.17946Z" fill="white"/>
<path d="M55.1125 15.8531C55.4774 15.4881 55.5296 14.9667 55.2167 14.4454C54.956 14.0283 54.4868 13.8197 53.9654 13.924C53.7569 13.9761 53.5483 14.0804 53.3398 14.2368C51.7235 15.3317 49.5337 15.2796 47.9175 14.1847C47.8132 14.1325 47.7089 14.0804 47.6046 14.0283C47.0311 13.7676 46.4576 13.8719 46.1448 14.3932C45.7798 14.9146 45.832 15.4881 46.3012 15.9574C46.4055 16.0616 46.5097 16.1138 46.5619 16.2181L46.614 16.2702C47.3439 16.8437 48.2303 17.2087 49.3773 17.3651L48.6995 18.0429C48.126 18.6164 47.5004 19.242 46.9268 19.8156C46.7704 19.972 46.5619 20.2327 46.5619 20.5976C46.5619 21.0669 46.8226 21.5361 47.2918 21.7446C47.4482 21.8489 47.6046 21.8489 47.761 21.8489C48.0217 21.8489 48.3346 21.7446 48.5431 21.484C49.3252 20.7019 49.9508 20.0762 50.5765 19.4506C50.6286 19.3985 50.6286 19.3985 50.6286 19.3985C50.6286 19.3985 50.6808 19.3985 50.6808 19.4506C51.0979 19.9198 51.5671 20.3369 51.9842 20.8062C52.1928 21.0147 52.4013 21.2233 52.6099 21.4318C52.8705 21.6925 53.0791 21.7968 53.3919 21.7968C53.8612 21.8489 54.3825 21.5361 54.5911 21.0669C54.7996 20.6498 54.6954 20.1284 54.3304 19.8156C53.809 19.2942 53.2876 18.7207 52.7141 18.1993L51.8278 17.3129C52.297 17.2608 52.8184 17.1565 53.2876 16.948C54.0697 16.6873 54.6432 16.3223 55.1125 15.8531Z" fill="white"/>
</g>
</g>
<g id="telegramm" opacity="0.5">
<circle id="Ellipse_2" cx="13.9106" cy="13.9106" r="13.9106" fill="#2F89CE"/>
<path id="Vector_2" d="M6.50369 14.1707L9.70181 15.3632L10.9485 19.3744C11.0027 19.6454 11.328 19.6996 11.5448 19.537L13.3335 18.0735C13.4962 17.9109 13.7672 17.9109 13.984 18.0735L17.1821 20.4043C17.3989 20.5669 17.7242 20.4585 17.7784 20.1875L20.1634 8.80438C20.2176 8.53336 19.9466 8.26233 19.6756 8.37074L6.50369 13.466C6.17846 13.5744 6.17846 14.0623 6.50369 14.1707ZM10.7859 14.767L17.0737 10.9184C17.1821 10.8642 17.2905 11.0268 17.1821 11.081L12.0326 15.9053C11.87 16.0679 11.7074 16.2847 11.7074 16.5557L11.5448 17.8567C11.5448 18.0193 11.2738 18.0735 11.2195 17.8567L10.5691 15.4716C10.4065 15.2006 10.5149 14.8754 10.7859 14.767Z" fill="white"/>
</g>
<g id="instagramm" opacity="0.5">
<circle id="Ellipse_3" cx="198.227" cy="13.9106" r="13.9106" fill="url(#paint0_linear_13813_2636)"/>
<path id="Vector_3" d="M202.804 8.34627H194.345C193.39 8.34627 192.663 9.0739 192.663 10.0289V18.4876C192.663 19.4427 193.39 20.1703 194.345 20.1703H202.804C203.759 20.1703 204.487 19.4427 204.487 18.4876V10.0289C204.487 9.0739 203.759 8.34627 202.804 8.34627ZM198.575 17.8055C200.53 17.8055 202.122 16.2593 202.122 14.3947C202.122 14.0764 202.076 13.7126 201.985 13.4397H202.986V18.2603C202.986 18.4876 202.804 18.715 202.531 18.715H194.618C194.391 18.715 194.163 18.5331 194.163 18.2603V13.3942H195.209C195.118 13.7126 195.073 14.0309 195.073 14.3492C195.027 16.2593 196.619 17.8055 198.575 17.8055ZM198.575 16.4412C197.301 16.4412 196.301 15.4407 196.301 14.2128C196.301 12.9849 197.301 11.9844 198.575 11.9844C199.848 11.9844 200.848 12.9849 200.848 14.2128C200.848 15.4862 199.848 16.4412 198.575 16.4412ZM202.94 11.5751C202.94 11.848 202.713 12.0754 202.44 12.0754H201.167C200.894 12.0754 200.667 11.848 200.667 11.5751V10.3473C200.667 10.0744 200.894 9.84701 201.167 9.84701H202.44C202.713 9.84701 202.94 10.0744 202.94 10.3473V11.5751Z" fill="white"/>
</g>
<g id="facebook" opacity="0.5">
<circle id="Ellipse_4" cx="87.6367" cy="13.9106" r="13.9106" fill="#4E6297"/>
<path id="Vector_4" d="M93.8968 9.61129C93.8968 8.5698 92.9778 7.65083 91.9363 7.65083H84.0332C82.9917 7.65083 82.0728 8.5698 82.0728 9.61129V17.5144C82.0728 18.5559 82.9917 19.4749 84.0332 19.4749H88.0154V15.0026H86.5451V13.0421H88.0154V12.2457C88.0154 10.8978 88.9956 9.73382 90.2209 9.73382H91.8138V11.6943H90.2209C90.0371 11.6943 89.8533 11.8781 89.8533 12.2457V13.0421H91.8138V15.0026H89.8533V19.4749H91.9363C92.9778 19.4749 93.8968 18.5559 93.8968 17.5144V9.61129Z" fill="white"/>
</g>
<g id="viber" opacity="0.5">
<circle id="Ellipse_5" cx="161.363" cy="13.9106" r="13.9106" fill="#7C509A"/>
<path id="Vector_5" d="M165.712 7.3351C163.061 6.82883 160.308 6.82883 157.657 7.3351C156.485 7.58823 155.006 9.00578 154.751 10.1196C154.293 12.2965 154.293 14.5241 154.751 16.701C155.057 17.8148 156.536 19.2324 157.657 19.4855C157.708 19.4855 157.759 19.5361 157.759 19.5867V22.7762C157.759 22.9281 157.963 23.0294 158.065 22.8775L159.595 21.3081C159.595 21.3081 160.818 20.0424 161.022 19.8399C161.022 19.8399 161.073 19.7893 161.124 19.7893C162.653 19.8399 164.234 19.688 165.763 19.4349C166.936 19.1817 168.414 17.7642 168.669 16.6504C169.128 14.4735 169.128 12.2459 168.669 10.0689C168.363 9.00578 166.885 7.58823 165.712 7.3351ZM165.763 16.8529C165.508 17.3592 165.203 17.7642 164.693 18.0173C164.54 18.0679 164.387 18.1186 164.234 18.1692C164.03 18.1186 163.877 18.0679 163.724 18.0173C162.093 17.3592 160.563 16.4479 159.34 15.1316C158.677 14.3722 158.116 13.5115 157.657 12.6003C157.453 12.1446 157.249 11.7396 157.096 11.284C156.944 10.879 157.198 10.4739 157.453 10.1702C157.708 9.86643 158.014 9.66392 158.371 9.51204C158.626 9.36016 158.881 9.46142 159.085 9.66392C159.493 10.1702 159.9 10.6765 160.206 11.2333C160.41 11.5877 160.359 11.9927 160.002 12.2459C159.9 12.2965 159.849 12.3471 159.748 12.4484C159.697 12.499 159.595 12.5496 159.544 12.6509C159.442 12.8028 159.442 12.9547 159.493 13.1065C159.9 14.2709 160.665 15.1822 161.838 15.6885C162.042 15.7897 162.195 15.8404 162.45 15.8404C162.806 15.7897 162.959 15.3847 163.214 15.1822C163.469 14.9797 163.775 14.9797 164.081 15.1316C164.336 15.2835 164.591 15.486 164.897 15.6885C165.152 15.891 165.406 16.0429 165.661 16.2454C165.814 16.3466 165.865 16.5998 165.763 16.8529ZM163.622 13.0559C163.52 13.0559 163.571 13.0559 163.622 13.0559C163.418 13.0559 163.367 12.9547 163.316 12.8028C163.316 12.7015 163.316 12.5496 163.265 12.4484C163.214 12.2459 163.112 12.0434 162.908 11.8915C162.806 11.8409 162.704 11.7902 162.602 11.7396C162.45 11.689 162.348 11.689 162.195 11.689C162.042 11.6384 161.991 11.5371 161.991 11.3852C161.991 11.284 162.144 11.1827 162.246 11.1827C163.061 11.2333 163.673 11.689 163.775 12.6509C163.775 12.7015 163.775 12.8028 163.775 12.8534C163.775 12.9547 163.724 13.0559 163.622 13.0559ZM163.112 10.8283C162.857 10.7271 162.602 10.6258 162.297 10.5752C162.195 10.5752 162.042 10.5246 161.94 10.5246C161.787 10.5246 161.685 10.4233 161.736 10.2714C161.736 10.1196 161.838 10.0183 161.991 10.0689C162.501 10.1196 162.959 10.2208 163.418 10.4233C164.336 10.879 164.846 11.6384 164.999 12.6509C164.999 12.7015 164.999 12.7521 164.999 12.8028C164.999 12.904 164.999 13.0053 164.999 13.1572C164.999 13.2078 164.999 13.2584 164.999 13.309C164.948 13.5115 164.591 13.5622 164.54 13.309C164.54 13.2584 164.489 13.1572 164.489 13.1065C164.489 12.6509 164.387 12.1953 164.183 11.7902C163.877 11.3346 163.52 11.0308 163.112 10.8283ZM165.865 13.8659C165.712 13.8659 165.61 13.7141 165.61 13.5622C165.61 13.2584 165.559 12.9547 165.508 12.6509C165.304 11.0308 163.979 9.71455 162.399 9.46142C162.144 9.41079 161.889 9.41079 161.685 9.36016C161.532 9.36016 161.328 9.36016 161.277 9.15766C161.226 9.00578 161.379 8.8539 161.532 8.8539C161.583 8.8539 161.634 8.8539 161.634 8.8539C161.736 8.8539 163.724 8.90452 161.634 8.8539C163.775 8.90452 165.559 10.3221 165.916 12.4484C165.967 12.8028 166.018 13.1572 166.018 13.5622C166.12 13.7141 166.018 13.8659 165.865 13.8659Z" fill="white"/>
</g>
<g id="watsapp" opacity="0.5">
<circle id="Ellipse_6" cx="124.5" cy="13.9106" r="13.9106" fill="#48C95F"/>
<path id="Vector_6" d="M130.014 8.38981C128.639 7.02049 126.807 6.25975 124.873 6.25975C120.853 6.25975 117.596 9.50556 117.596 13.5121C117.596 14.78 117.952 16.0479 118.563 17.1129L117.545 20.8659L121.413 19.8516C122.481 20.4095 123.652 20.7137 124.873 20.7137C128.894 20.7137 132.151 17.4679 132.151 13.4614C132.1 11.5849 131.388 9.75914 130.014 8.38981ZM128.385 16.0986C128.232 16.5043 127.52 16.9101 127.164 16.9608C126.858 17.0115 126.451 17.0115 126.044 16.9101C125.79 16.8086 125.433 16.7072 125.026 16.5043C123.194 15.7436 122.023 13.9178 121.922 13.7657C121.82 13.6643 121.158 12.8021 121.158 11.8892C121.158 10.9763 121.616 10.5706 121.769 10.3677C121.922 10.1649 122.125 10.1649 122.278 10.1649C122.38 10.1649 122.532 10.1649 122.634 10.1649C122.736 10.1649 122.889 10.1141 123.041 10.4692C123.194 10.8242 123.55 11.7371 123.601 11.7878C123.652 11.8892 123.652 11.9906 123.601 12.0921C123.55 12.1935 123.499 12.2949 123.398 12.3964C123.296 12.4978 123.194 12.6499 123.143 12.7007C123.041 12.8021 122.94 12.9035 123.041 13.0557C123.143 13.2585 123.499 13.8164 124.059 14.3236C124.772 14.9321 125.331 15.135 125.535 15.2364C125.739 15.3379 125.84 15.2872 125.942 15.1857C126.044 15.0843 126.4 14.6786 126.502 14.4757C126.604 14.2728 126.756 14.3236 126.909 14.3743C127.062 14.425 127.978 14.8814 128.131 14.9829C128.334 15.0843 128.436 15.135 128.487 15.1857C128.538 15.3379 128.538 15.6929 128.385 16.0986Z" fill="white"/>
</g>
<g id="vk">
<circle id="Ellipse_7" cx="235.089" cy="13.9106" r="13.9106" fill="#7294C7"/>
<path id="Vector_7" d="M241.91 17.4684C241.91 17.4106 241.852 17.4106 241.852 17.3529C241.621 16.8909 241.101 16.3135 240.408 15.6783C240.062 15.3895 239.889 15.1586 239.773 15.0431C239.6 14.8121 239.6 14.6389 239.658 14.4079C239.715 14.2346 239.946 13.9459 240.351 13.4262C240.582 13.1375 240.697 12.9642 240.87 12.791C241.737 11.6361 242.141 10.8854 242.025 10.539L241.968 10.4812C241.91 10.4235 241.852 10.3657 241.737 10.3657C241.621 10.308 241.448 10.308 241.275 10.3657H239.08C239.023 10.3657 239.023 10.3657 238.907 10.3657C238.849 10.3657 238.792 10.3657 238.792 10.3657H238.734H238.676L238.618 10.4235C238.561 10.4812 238.561 10.4812 238.561 10.539C238.33 11.1741 238.041 11.6939 237.752 12.2713C237.579 12.56 237.406 12.8488 237.232 13.0797C237.059 13.3107 236.944 13.4839 236.828 13.5994C236.713 13.7149 236.597 13.7727 236.539 13.8882C236.482 13.9459 236.366 14.0037 236.366 13.9459C236.308 13.9459 236.251 13.9459 236.251 13.8882C236.193 13.8304 236.135 13.7727 236.078 13.7149C236.02 13.6572 236.02 13.5417 235.962 13.4262C235.962 13.3107 235.962 13.1952 235.962 13.1375C235.962 13.0797 235.962 12.9065 235.962 12.791C235.962 12.6178 235.962 12.5023 235.962 12.4445C235.962 12.2713 235.962 12.0403 235.962 11.8093C235.962 11.5784 235.962 11.4051 235.962 11.2896C235.962 11.1741 235.962 11.0009 235.962 10.8854C235.962 10.7122 235.962 10.5967 235.962 10.539C235.962 10.4812 235.904 10.3657 235.904 10.308C235.847 10.2502 235.789 10.1925 235.731 10.1347C235.673 10.077 235.558 10.077 235.5 10.0193C235.211 9.96151 234.865 9.90376 234.461 9.90376C233.537 9.90376 232.902 9.96151 232.671 10.077C232.555 10.1347 232.44 10.1925 232.382 10.308C232.266 10.4235 232.266 10.4812 232.324 10.4812C232.613 10.539 232.844 10.6544 232.959 10.8277L233.017 10.9432C233.075 11.0009 233.075 11.1164 233.133 11.2896C233.19 11.4629 233.19 11.6361 233.19 11.8671C233.19 12.2136 233.19 12.56 233.19 12.791C233.19 13.0797 233.133 13.253 233.133 13.4262C233.133 13.5994 233.075 13.7149 233.017 13.7727C232.959 13.8882 232.959 13.9459 232.902 13.9459C232.902 13.9459 232.902 14.0037 232.844 14.0037C232.786 14.0037 232.728 14.0614 232.613 14.0614C232.555 14.0614 232.44 14.0037 232.382 13.9459C232.266 13.8882 232.151 13.7727 232.093 13.6572C231.978 13.5417 231.862 13.3685 231.747 13.1375C231.631 12.9065 231.458 12.6755 231.342 12.3291L231.227 12.0981C231.169 11.9826 231.054 11.7516 230.938 11.4629C230.823 11.1742 230.707 10.9432 230.592 10.6544C230.534 10.539 230.476 10.4812 230.419 10.4235H230.361C230.361 10.4235 230.303 10.3657 230.245 10.3657C230.188 10.3657 230.13 10.308 230.072 10.308H227.993C227.762 10.308 227.647 10.3657 227.589 10.4235L227.531 10.4812C227.531 10.4812 227.531 10.539 227.531 10.5967C227.531 10.6544 227.531 10.7122 227.589 10.8277C227.878 11.5206 228.224 12.2136 228.571 12.9065C228.917 13.5417 229.264 14.1191 229.495 14.5234C229.783 14.9276 230.014 15.3318 230.303 15.6783C230.592 16.0247 230.765 16.2557 230.823 16.3712C230.938 16.4867 230.996 16.5444 231.054 16.6022L231.227 16.7754C231.342 16.8909 231.516 17.0641 231.747 17.2374C231.978 17.4106 232.266 17.5838 232.555 17.7571C232.844 17.9303 233.19 18.0458 233.537 18.1613C233.941 18.2768 234.287 18.3345 234.634 18.2768H235.5C235.673 18.2768 235.789 18.219 235.904 18.1036L235.962 18.0458C235.962 17.9881 236.02 17.9881 236.02 17.9303C236.02 17.8726 236.02 17.8148 236.02 17.6993C236.02 17.4684 236.02 17.2951 236.078 17.1219C236.135 16.9487 236.135 16.8332 236.193 16.7177C236.251 16.6022 236.308 16.5444 236.366 16.4867C236.424 16.4289 236.482 16.3712 236.482 16.3712H236.539C236.655 16.3135 236.828 16.3712 236.944 16.4867C237.117 16.6022 237.29 16.7754 237.406 16.9487C237.521 17.1219 237.694 17.2951 237.925 17.5261C238.156 17.7571 238.33 17.9303 238.445 17.9881L238.618 18.1036C238.734 18.1613 238.849 18.219 239.023 18.2768C239.196 18.3345 239.311 18.3345 239.427 18.3345L241.39 18.2768C241.563 18.2768 241.737 18.219 241.852 18.1613C241.968 18.1036 242.025 18.0458 242.025 17.9303C242.025 17.8726 242.025 17.7571 242.025 17.6993C241.91 17.5838 241.91 17.5261 241.91 17.4684Z" fill="white"/>
</g>
</g>
<defs>
<linearGradient id="paint0_linear_13813_2636" x1="190.228" y1="24.6913" x2="208.659" y2="5.56425" gradientUnits="userSpaceOnUse">
<stop stop-color="#EEA054"/>
<stop offset="0.502762" stop-color="#D64763"/>
<stop offset="1" stop-color="#B62A99"/>
</linearGradient>
</defs>
</svg>
