<svg width="72" height="28" viewBox="0 0 72 28" fill="none" xmlns="http://www.w3.org/2000/svg">
<g id="googlePay" opacity="0.5">
<path id="Vector" d="M33.58 13.6798V21.8875H30.958V1.61806H37.9119C38.742 1.60084 39.5673 1.74704 40.3401 2.04822C41.113 2.34939 41.8181 2.79958 42.4149 3.37281C43.0176 3.91124 43.4974 4.57156 43.8218 5.3094C44.1462 6.04724 44.3079 6.84549 44.2959 7.65052C44.3131 8.45986 44.154 9.26333 43.8293 10.0059C43.5046 10.7484 43.0221 11.4125 42.4149 11.9525C41.1989 13.104 39.6979 13.6792 37.9119 13.6781H33.58V13.6798ZM33.58 4.11353V11.1891H37.9771C38.4591 11.2033 38.9388 11.1174 39.3856 10.937C39.8323 10.7565 40.2362 10.4855 40.5714 10.1411C40.9048 9.8192 41.1699 9.43413 41.3508 9.0087C41.5318 8.58326 41.6251 8.12611 41.6251 7.66427C41.6251 7.20243 41.5318 6.74527 41.3508 6.31984C41.1699 5.89441 40.9048 5.50934 40.5714 5.1874C40.2404 4.83582 39.8379 4.55811 39.3906 4.3727C38.9434 4.18728 38.4615 4.09839 37.9771 4.11191H33.58V4.11353Z" fill="#5F6368"/>
<path id="Vector_2" d="M50.3379 7.56641C52.2759 7.56641 53.8057 8.0807 54.9272 9.10929C56.0487 10.1379 56.6089 11.5482 56.6079 13.3401V21.8874H54.0999V19.9629H53.9859C52.9002 21.5478 51.4562 22.3403 49.6539 22.3403C48.1155 22.3403 46.8284 21.8874 45.7926 20.9818C45.2956 20.5661 44.8982 20.0455 44.6294 19.4579C44.3606 18.8704 44.2272 18.2307 44.239 17.5855C44.239 16.1504 44.7851 15.0091 45.8773 14.1617C46.9695 13.3142 48.4276 12.8894 50.2516 12.8873C51.8085 12.8873 53.0907 13.1703 54.0983 13.7363V13.1412C54.1012 12.7013 54.0056 12.2663 53.8183 11.8677C53.6309 11.4691 53.3567 11.1168 53.0153 10.8366C52.3219 10.2153 51.4183 9.87635 50.4845 9.88721C49.0199 9.88721 47.8609 10.5007 47.0075 11.7277L44.6982 10.2834C45.9685 8.47208 47.8484 7.56641 50.3379 7.56641ZM46.9456 17.6421C46.9439 17.9735 47.0219 18.3005 47.1732 18.5958C47.3244 18.8912 47.5446 19.1464 47.8153 19.3402C48.3952 19.7932 49.1149 20.0332 49.8526 20.0195C50.959 20.0176 52.0196 19.5803 52.8019 18.8033C53.6705 17.9914 54.1048 17.0388 54.1048 15.9455C53.2872 15.2986 52.1472 14.9752 50.6848 14.9752C49.6197 14.9752 48.7316 15.2302 48.0205 15.7401C47.3023 16.2577 46.9456 16.8868 46.9456 17.6421Z" fill="#5F6368"/>
<path id="Vector_3" d="M71.0044 8.01929L62.2493 28.0008H59.5426L62.7916 21.0093L57.0347 8.01929H59.8846L64.0456 17.9817H64.1026L68.1495 8.01929H71.0044Z" fill="#5F6368"/>
<path id="Vector_4" d="M22.9849 11.9104C22.9859 11.1169 22.9183 10.3248 22.783 9.54272H11.7251V14.0274H18.0585C17.9289 14.7437 17.6546 15.4265 17.2521 16.0347C16.8497 16.6428 16.3273 17.1638 15.7167 17.5661V20.4772H19.4965C21.7097 18.4507 22.9849 15.4539 22.9849 11.9104Z" fill="#4285F4"/>
<path id="Vector_5" d="M11.725 23.2896C14.8893 23.2896 17.5536 22.2578 19.4965 20.4788L15.7166 17.5677C14.6645 18.276 13.3096 18.6803 11.725 18.6803C8.66659 18.6803 6.07068 16.6329 5.1424 13.8738H1.24854V16.8738C2.22447 18.8024 3.72097 20.4237 5.57094 21.5566C7.42092 22.6895 9.55157 23.2895 11.725 23.2896Z" fill="#34A853"/>
<path id="Vector_6" d="M5.14243 13.8738C4.65169 12.428 4.65169 10.8623 5.14243 9.41656V6.4165H1.24857C0.427573 8.03889 0 9.82945 0 11.6452C0 13.4609 0.427573 15.2515 1.24857 16.8738L5.14243 13.8738Z" fill="#FBBC04"/>
<path id="Vector_7" d="M11.725 4.61002C13.3972 4.58289 15.013 5.21031 16.2231 6.35668L19.5697 3.03317C17.4476 1.05374 14.6362 -0.0330033 11.725 0.000763984C9.55157 0.000862355 7.42092 0.600864 5.57094 1.73378C3.72097 2.8667 2.22447 4.48795 1.24854 6.41652L5.1424 9.41658C6.07068 6.6575 8.66659 4.61002 11.725 4.61002Z" fill="#EA4335"/>
</g>
</svg>
