<svg width="52" height="65" viewBox="0 0 52 65" fill="none" xmlns="http://www.w3.org/2000/svg">
<g id="shape">
<path id="Union" opacity="0.8" fill-rule="evenodd" clip-rule="evenodd" d="M21.0052 14.4166V12.5C21.0052 9.73855 23.2438 7.49998 26.0052 7.49998C28.7666 7.49998 31.0052 9.73855 31.0052 12.5V14.4166H21.0052ZM13.6719 15.5833V14.4166V12.5C13.6719 5.68847 19.1937 0.166641 26.0052 0.166641C32.8167 0.166641 38.3385 5.68846 38.3385 12.5V14.4166V15.5833H44.9892C46.889 15.5833 48.4742 17.0344 48.6416 18.9268L51.6514 52.9472C52.2206 59.3798 47.152 64.9166 40.6942 64.9166H11.3094C4.85169 64.9166 -0.216867 59.3798 0.352244 52.9472L3.36211 18.9268C3.52954 17.0344 5.1147 15.5833 7.01451 15.5833H13.6719ZM7.65704 53.5935L10.3711 22.9166H41.6326L44.3466 53.5935C44.5364 55.7377 42.8468 57.5833 40.6942 57.5833H11.3094C9.15686 57.5833 7.46734 55.7377 7.65704 53.5935Z" fill="#CACACA"/>
</g>
</svg>
