<svg width="69" height="21" viewBox="0 0 69 21" fill="none" xmlns="http://www.w3.org/2000/svg">
<g id="visa" opacity="0.5">
<path id="Vector" d="M63.7999 0.299988H59.4999C58.1999 0.299988 57.1999 0.699988 56.5999 1.99999L48.3999 20.7H54.1999C54.1999 20.7 55.1999 18.2 55.3999 17.6C55.9999 17.6 61.6999 17.6 62.4999 17.6C62.6999 18.3 63.1999 20.6 63.1999 20.6H68.3999L63.7999 0.299988ZM56.9999 13.4C57.4999 12.2 59.1999 7.69999 59.1999 7.69999C59.1999 7.79999 59.6999 6.49999 59.8999 5.79999L60.2999 7.59999C60.2999 7.59999 61.3999 12.5 61.5999 13.5H56.9999V13.4Z" fill="#3362AB"/>
<path id="Vector_2" d="M48.7999 14C48.7999 18.2 44.9999 21 39.0999 21C36.5999 21 34.1999 20.5 32.8999 19.9L33.6999 15.3L34.3999 15.6C36.1999 16.4 37.3999 16.7 39.5999 16.7C41.1999 16.7 42.8999 16.1 42.8999 14.7C42.8999 13.8 42.1999 13.2 39.9999 12.2C37.8999 11.2 35.0999 9.6 35.0999 6.7C35.0999 2.7 38.9999 0 44.4999 0C46.5999 0 48.3999 0.4 49.4999 0.9L48.6999 5.3L48.2999 4.9C47.2999 4.5 45.9999 4.1 44.0999 4.1C41.9999 4.2 40.9999 5.1 40.9999 5.9C40.9999 6.8 42.1999 7.5 44.0999 8.4C47.2999 9.9 48.7999 11.6 48.7999 14Z" fill="#3362AB"/>
<path id="Vector_3" d="M0 0.499976L0.1 0.0999756H8.7C9.9 0.0999756 10.8 0.499976 11.1 1.79998L13 10.8C11.1 5.99998 6.7 2.09998 0 0.499976Z" fill="#F9B50B"/>
<path id="Vector_4" d="M25.1 0.300012L16.4 20.6H10.5L5.5 3.60001C9.1 5.90001 12.1 9.50001 13.2 12L13.8 14.1L19.2 0.200012H25.1V0.300012Z" fill="#3362AB"/>
<path id="Vector_5" d="M27.3999 0.200012H32.8999L29.3999 20.6H23.8999L27.3999 0.200012Z" fill="#3362AB"/>
</g>
</svg>
