<svg width="39" height="36" viewBox="0 0 39 36" fill="none" xmlns="http://www.w3.org/2000/svg">
<g id="yandex" opacity="0.5">
<path id="yandex_2" d="M38.2 14.6298C38 13.4298 36.9 12.6298 35.4 12.6298C34.9 12.6298 34.5 12.6298 34 12.6298C33.1 12.5298 32.9 12.8298 32.9 13.5298C32.9 17.0298 32.9 20.4298 32.9 23.9298C32.9 25.7298 31.1 27.6298 29 28.0298C22.4 29.5298 15.8 30.9298 9.19998 32.4298C8.49998 32.6298 7.69999 32.6298 6.89999 32.6298C6.59999 32.6298 6.1 32.4298 6 32.1298C5.9 31.9298 6.19999 31.5298 6.39999 31.3298C6.69999 31.1298 7.1 30.9298 7.5 30.7298C8.7 30.3298 9.99998 29.9298 11.2 29.5298C16.1 27.9298 21 26.3298 25.9 24.6298C28.1 23.9298 29.3 22.4298 29.3 20.5298C29.4 14.5298 29.3 8.42977 29.3 2.42977C29.3 1.42977 28.8 0.629777 27.7 0.229777C26.4 -0.270223 25.2 0.129771 24.1 0.629771C17.1 3.92977 10.2 7.22978 3.19998 10.5298C1.19998 11.5298 0 12.9298 0 14.9298C0 20.6298 0 26.3298 0 32.0298C0 32.3298 -2.44156e-05 32.6298 0.0999756 32.8298C0.799976 34.7298 2.6 35.9298 5 35.9298C9.9 35.9298 14.8 35.9298 19.7 35.9298C24.6 35.9298 29.4 35.9298 34.3 35.9298C35.4 35.9298 36.3 35.7298 37.1 35.0298C38.1 34.2298 38.1 33.1298 38.1 32.1298C38.1 26.5298 38.1 21.0298 38.1 15.4298C38.3 15.3298 38.3 14.9298 38.2 14.6298ZM17.8 12.8298C18.3 11.5298 19.4 10.7298 21 10.5298C22.1 10.4298 23 11.0298 23.2 12.0298C23.4 13.5298 21.6 15.3298 19.7 15.3298C18.2 15.3298 17.3 14.2298 17.8 12.8298Z" fill="#E47418"/>
</g>
</svg>
